<svg
  width="797.295px"
  height="235.75px"
  viewBox="0 0 797.295 235.75"
  xmlns="http://www.w3.org/2000/svg"
>
  <g>
    <g>
      <path
        fillRule="evenodd"
        clipRule="evenodd"
        fill="#fff"
        d="M48.906,163.7h-7.037H17.396l15.041-26.282h31.494L48.906,163.7L48.906,163.7z
    M43.528,117.857L110.766,0.55l11.674,20.399l4.04,7.059L75.003,117.86L43.528,117.857z"
      />
      <polygon
        fillRule="evenodd"
        clipRule="evenodd"
        fill="#fff"
        points="121.898,75.326 137.698,47.689 204.135,163.7 72.211,163.7
    87.237,137.418 158.185,137.418 141.902,109.215 		"
      />
    </g>
    <path
      fillRule="evenodd"
      clipRule="evenodd"
      fill="#fff"
      d="M20.795,196.993L0,234.445h12.625l3.554-6.684h24.138l3.501,6.684h12.997
  l-21.113-37.453H20.795L20.795,196.993z M28.381,205.268l7.745,14.589H20.371L28.381,205.268L28.381,205.268z M61.377,222.138
  c0,2.812-0.053,7.002,2.069,9.284c1.857,2.016,4.669,2.493,7.162,2.865c5.039,0.265,10.026,0.583,15.013,0.583
  c4.615,0,9.177-0.212,13.793-0.477c2.335-0.371,4.615-0.743,6.366-2.016c0.636-0.477,1.061-0.955,1.539-1.592
  c1.167-1.645,1.91-3.66,1.91-7.904c0-5.464-1.698-7.905-3.608-9.284c-1.326-0.955-2.493-1.379-5.57-1.697l-22.493-0.796
  c-1.432-0.107-2.706-0.159-3.713-1.432c-0.212-0.212-0.637-0.849-0.637-1.645c0-0.796,0.478-1.486,0.637-1.698
  c0.902-1.167,2.228-1.22,3.66-1.273c2.175-0.052,4.297-0.159,6.472-0.159c2.759,0,5.57,0.107,8.329,0.266
  c3.024,0.318,3.554,0.689,4.244,3.554l11.353,0.053c0.106-3.289,0.106-6.631-2.493-9.018c-2.016-1.857-4.615-2.335-5.411-2.44
  l-2.069-0.318c-4.509-0.212-9.019-0.477-13.528-0.477c-4.085,0-8.169,0.159-12.254,0.318c-3.13,0.372-5.994,0.743-8.169,3.077
  c-0.637,0.689-1.167,1.485-1.539,2.387c-0.955,2.387-0.955,6.472-0.955,6.737c0,3.82,1.061,6.1,2.228,7.373
  c1.804,1.963,4.404,2.387,5.146,2.494c0.531,0.106,1.114,0.159,1.645,0.265c1.751,0.106,3.501,0.265,5.252,0.371
  c5.464,0.318,10.981,0.371,16.498,0.478c2.653,0.371,3.82,0.318,4.722,1.591c0.477,0.689,0.53,1.326,0.53,1.644
  c0,1.273-1.008,2.44-2.175,2.865c-1.167,0.477-2.811,0.318-3.183,0.318c-2.6,0.053-5.146,0.159-7.692,0.106
  c-2.387-0.053-4.721-0.159-7.108-0.266c-2.44-0.212-3.554-0.689-3.979-1.91c-0.266-0.637-0.266-1.326-0.266-2.175L61.377,222.138
  L61.377,222.138z M115.063,197.046v8.7h16.551v28.7h11.777v-28.753h16.87v-8.647H115.063L115.063,197.046z M181.373,196.993H166.89
  l21.273,24.35v13.103h11.724v-13.103l21.644-24.35h-14.96l-12.625,15.278L181.373,196.993z"
    />
  </g>
  <g>
    <path
      fillRule="evenodd"
      clipRule="evenodd"
      fill="#fff"
      d="M285.206,92.923c1.666,0.546,2.965,1.45,3.898,2.714
  c0.934,1.264,1.4,2.771,1.4,4.523c0,1.58-0.381,3.001-1.142,4.265c-0.761,1.263-1.838,2.247-3.231,2.951
  c-1.393,0.703-3.008,1.055-4.846,1.055h-12.191V80h9.951c1.695,0,3.188,0.323,4.48,0.969c1.292,0.646,2.29,1.543,2.994,2.692
  c0.704,1.149,1.055,2.456,1.055,3.92c0,1.091-0.201,2.089-0.603,2.994C286.57,91.48,285.981,92.262,285.206,92.923L285.206,92.923z
  M273.575,84.006v7.668h5.04c1.407,0,2.491-0.352,3.252-1.055c0.761-0.704,1.142-1.644,1.142-2.821
  c0-1.177-0.381-2.104-1.142-2.778c-0.761-0.675-1.845-1.012-3.252-1.012H273.575L273.575,84.006z M280.898,104.425
  c1.58,0,2.807-0.395,3.683-1.185c0.876-0.79,1.314-1.859,1.314-3.209c0-1.35-0.438-2.427-1.314-3.231
  c-0.876-0.804-2.103-1.206-3.683-1.206h-7.323v8.831H280.898L280.898,104.425z M315.092,108.904c-2.269,0-4.286-0.473-6.052-1.421
  c-1.767-0.948-3.152-2.326-4.157-4.135c-1.005-1.809-1.508-3.949-1.508-6.419V80h4.566v17.231c0,2.412,0.668,4.264,2.003,5.556
  c1.336,1.292,3.051,1.939,5.148,1.939c2.068,0,3.762-0.646,5.083-1.939c1.321-1.292,1.982-3.144,1.982-5.556V80h4.566v16.929
  c0,2.47-0.503,4.609-1.508,6.419c-1.005,1.809-2.391,3.187-4.157,4.135C319.292,108.431,317.303,108.904,315.092,108.904
  L315.092,108.904z M359.409,108.431l-8.099-10.985h-5.212v10.985h-4.567V80h10.382c1.896,0,3.575,0.366,5.04,1.099
  c1.465,0.732,2.599,1.759,3.403,3.08c0.804,1.321,1.206,2.829,1.206,4.523c0,1.867-0.489,3.504-1.465,4.911
  c-0.977,1.407-2.312,2.441-4.006,3.102l8.529,11.717H359.409L359.409,108.431z M346.099,93.397h5.729
  c1.58,0,2.814-0.431,3.705-1.292c0.89-0.861,1.335-1.981,1.335-3.36c0-1.407-0.445-2.542-1.335-3.403
  c-0.89-0.861-2.125-1.292-3.705-1.292h-5.729V93.397L346.099,93.397z M376.674,80h18.695v4.092H381.24v7.28h10.64v3.963h-10.64
  v9.003h14.646v4.093h-19.212V80L376.674,80z M426.203,103.692H413.41l-2.025,4.739h-4.868l12.536-28.904h1.55l12.536,28.904h-4.911
  L426.203,103.692L426.203,103.692z M419.828,88.012l-4.782,11.76h9.52L419.828,88.012L419.828,88.012z M455.96,108.904
  c-2.269,0-4.286-0.473-6.052-1.421c-1.766-0.948-3.152-2.326-4.157-4.135c-1.005-1.809-1.508-3.949-1.508-6.419V80h4.566v17.231
  c0,2.412,0.668,4.264,2.003,5.556c1.336,1.292,3.051,1.939,5.148,1.939c2.067,0,3.762-0.646,5.083-1.939
  c1.321-1.292,1.981-3.144,1.981-5.556V80h4.566v16.929c0,2.47-0.503,4.609-1.508,6.419c-1.005,1.809-2.391,3.187-4.157,4.135
  C460.16,108.431,458.171,108.904,455.96,108.904L455.96,108.904z M523.805,108.904c-2.728,0-5.234-0.646-7.517-1.938
  c-2.283-1.292-4.085-3.058-5.406-5.298c-1.321-2.24-1.982-4.724-1.982-7.452c0-2.728,0.668-5.212,2.003-7.452
  c1.336-2.24,3.138-4.006,5.406-5.298c2.269-1.292,4.768-1.938,7.495-1.938c2.699,0,5.198,0.646,7.496,1.938
  c2.297,1.292,4.114,3.058,5.449,5.298c1.335,2.24,2.003,4.724,2.003,7.452c0,2.728-0.668,5.212-2.003,7.452
  c-1.335,2.24-3.152,4.006-5.449,5.298C529.003,108.258,526.504,108.904,523.805,108.904L523.805,108.904z M523.848,104.726
  c1.924,0,3.662-0.452,5.213-1.357c1.55-0.904,2.771-2.161,3.661-3.769c0.89-1.608,1.335-3.417,1.335-5.428
  c0-1.953-0.445-3.733-1.335-5.341c-0.89-1.608-2.111-2.865-3.661-3.769c-1.551-0.905-3.288-1.357-5.213-1.357
  c-1.953,0-3.704,0.452-5.255,1.357c-1.551,0.904-2.764,2.154-3.64,3.748c-0.876,1.594-1.314,3.381-1.314,5.363
  c0,2.01,0.438,3.82,1.314,5.428c0.876,1.608,2.089,2.864,3.64,3.769C520.144,104.274,521.895,104.726,523.848,104.726
  L523.848,104.726z M552.184,80h18.265v4.092H556.75v8.486h11.286v4.136H556.75v11.717h-4.567V80L552.184,80z M609.863,80h8.917
  c3.102,0,5.815,0.596,8.142,1.788c2.326,1.192,4.128,2.857,5.406,4.997c1.278,2.14,1.917,4.602,1.917,7.387
  c0,2.757-0.639,5.213-1.917,7.366c-1.278,2.154-3.087,3.841-5.428,5.061c-2.34,1.221-5.047,1.831-8.12,1.831h-8.917V80L609.863,80z
  M618.737,104.338c2.182,0,4.092-0.431,5.729-1.292c1.637-0.861,2.894-2.067,3.769-3.619c0.876-1.55,1.314-3.303,1.314-5.255
  c0-2.01-0.438-3.769-1.314-5.277c-0.876-1.508-2.125-2.678-3.748-3.511c-1.622-0.832-3.539-1.249-5.751-1.249h-4.307v20.203
  H618.737L618.737,104.338z M647.632,80h18.695v4.092h-14.129v7.28h10.64v3.963h-10.64v9.003h14.646v4.093h-19.212V80L647.632,80z
  M688.804,108.904c-2.326,0-4.422-0.546-6.289-1.637c-1.867-1.091-3.345-2.599-4.437-4.523l3.231-2.455
  c0.948,1.379,2.017,2.477,3.209,3.295c1.192,0.818,2.606,1.228,4.243,1.228c1.465,0,2.649-0.359,3.554-1.077
  c0.905-0.718,1.357-1.68,1.357-2.886c0-1.005-0.323-1.795-0.969-2.369c-0.646-0.574-1.716-1.206-3.209-1.895l-3.145-1.465
  c-2.068-0.948-3.69-2.025-4.868-3.231c-1.177-1.206-1.766-2.757-1.766-4.652c0-1.522,0.402-2.872,1.206-4.049
  c0.804-1.178,1.888-2.082,3.252-2.714c1.364-0.632,2.865-0.948,4.501-0.948c2.01,0,3.82,0.467,5.428,1.4
  c1.608,0.934,2.857,2.161,3.747,3.683l-3.188,2.455c-0.747-1.12-1.63-1.974-2.649-2.563c-1.02-0.589-2.133-0.883-3.339-0.883
  c-1.206,0-2.226,0.294-3.058,0.883c-0.833,0.589-1.249,1.443-1.249,2.563c0,0.69,0.158,1.264,0.473,1.723
  c0.316,0.459,0.733,0.84,1.25,1.141c0.517,0.302,1.264,0.697,2.24,1.185l3.188,1.464c2.297,1.063,4.006,2.211,5.126,3.447
  c1.12,1.235,1.68,2.785,1.68,4.652c0,1.637-0.409,3.08-1.228,4.329c-0.818,1.249-1.953,2.211-3.403,2.886
  C692.243,108.567,690.613,108.904,688.804,108.904L688.804,108.904z M712.143,80h4.567v28.431h-4.567V80L712.143,80z
  M745.088,108.904c-2.786,0-5.32-0.646-7.603-1.938c-2.283-1.292-4.085-3.058-5.406-5.298c-1.321-2.24-1.982-4.724-1.982-7.452
  c0-2.728,0.66-5.212,1.982-7.452c1.321-2.24,3.13-4.006,5.427-5.298c2.298-1.292,4.825-1.938,7.582-1.938
  c2.47,0,4.71,0.517,6.72,1.551c2.01,1.034,3.69,2.499,5.04,4.394l-3.317,2.714c-2.125-2.987-4.954-4.48-8.486-4.48
  c-1.981,0-3.747,0.452-5.298,1.357c-1.55,0.904-2.757,2.154-3.619,3.748c-0.861,1.594-1.292,3.381-1.292,5.363
  c0,2.01,0.445,3.827,1.336,5.449c0.89,1.623,2.125,2.893,3.704,3.812c1.58,0.919,3.389,1.379,5.428,1.379
  c1.866,0,3.525-0.381,4.975-1.142c1.45-0.761,2.621-1.816,3.511-3.166v-3.058h-8.745v-4.049h13.311v8.012
  c-1.263,2.269-3.073,4.085-5.427,5.449C750.573,108.222,747.96,108.904,745.088,108.904L745.088,108.904z M795.349,80v28.904
  h-1.551l-17.317-19.729v19.255h-4.566V79.526h1.594l17.274,19.643V80H795.349z"
    />
    <path
      fillRule="evenodd"
      clipRule="evenodd"
      fill="#fff"
      d="M286.154,150.682H273.36l-2.024,4.738h-4.868l12.536-28.904h1.55l12.535,28.904
  h-4.911L286.154,150.682L286.154,150.682z M279.778,135.002l-4.782,11.76h9.52L279.778,135.002L279.778,135.002z M328.282,126.989
  v28.904h-1.551l-17.317-19.729v19.255h-4.566v-28.904h1.594l17.274,19.643v-19.169H328.282L328.282,126.989z M342.712,126.989
  h8.917c3.102,0,5.815,0.596,8.142,1.788c2.326,1.192,4.128,2.858,5.406,4.997c1.278,2.14,1.917,4.602,1.917,7.387
  c0,2.757-0.639,5.212-1.917,7.366c-1.278,2.154-3.087,3.841-5.428,5.061c-2.34,1.221-5.047,1.831-8.12,1.831h-8.917V126.989
  L342.712,126.989z M351.586,151.328c2.182,0,4.092-0.431,5.729-1.292c1.637-0.862,2.893-2.068,3.769-3.619
  c0.876-1.55,1.314-3.303,1.314-5.255c0-2.01-0.438-3.769-1.314-5.277c-0.876-1.508-2.125-2.678-3.748-3.511
  c-1.623-0.832-3.54-1.249-5.751-1.249h-4.308v20.203H351.586L351.586,151.328z M423.61,150.682h-12.794l-2.025,4.738h-4.867
  l12.535-28.904h1.551l12.535,28.904h-4.911L423.61,150.682L423.61,150.682z M417.234,135.002l-4.781,11.76h9.52L417.234,135.002
  L417.234,135.002z M460.181,155.42l-8.099-10.984h-5.212v10.984h-4.566v-28.431h10.381c1.896,0,3.575,0.366,5.04,1.099
  c1.465,0.733,2.599,1.759,3.403,3.08c0.804,1.321,1.206,2.829,1.206,4.523c0,1.867-0.488,3.504-1.465,4.911
  c-0.976,1.407-2.312,2.441-4.006,3.101l8.529,11.717H460.181L460.181,155.42z M446.871,140.386h5.729
  c1.58,0,2.814-0.431,3.705-1.292c0.89-0.861,1.335-1.981,1.335-3.36c0-1.407-0.445-2.541-1.335-3.403
  c-0.891-0.862-2.125-1.292-3.705-1.292h-5.729V140.386L446.871,140.386z M489.3,155.894c-2.728,0-5.234-0.646-7.517-1.938
  c-2.283-1.293-4.092-3.058-5.428-5.299c-1.335-2.24-2.003-4.724-2.003-7.452c0-2.728,0.668-5.212,2.003-7.453
  c1.336-2.24,3.145-4.006,5.428-5.298c2.283-1.292,4.789-1.938,7.517-1.938c2.614,0,4.99,0.589,7.129,1.766
  c2.14,1.177,3.827,2.771,5.062,4.781l-3.446,2.542c-1.005-1.58-2.24-2.793-3.705-3.64c-1.464-0.847-3.13-1.271-4.996-1.271
  c-1.924,0-3.669,0.452-5.234,1.357c-1.565,0.904-2.793,2.161-3.683,3.769c-0.891,1.608-1.336,3.403-1.336,5.384
  c0,1.981,0.445,3.776,1.336,5.385c0.89,1.608,2.118,2.865,3.683,3.769c1.565,0.905,3.31,1.357,5.234,1.357
  c1.866,0,3.532-0.424,4.996-1.271c1.465-0.847,2.699-2.06,3.705-3.64l3.446,2.541c-1.206,2.01-2.879,3.604-5.018,4.782
  C494.334,155.305,491.943,155.894,489.3,155.894L489.3,155.894z M514.199,126.989h4.566v11.33h14.301v-11.33h4.566v28.431h-4.566
  v-13.009h-14.301v13.009h-4.566V126.989L514.199,126.989z M552.063,126.989h4.567v28.431h-4.567V126.989L552.063,126.989z
  M577.693,131.082h-9.563v-4.093h23.735v4.093h-9.606v24.338h-4.566V131.082L577.693,131.082z M603.367,126.989h18.695v4.093
  h-14.129v7.28h10.64v3.963h-10.64v9.003h14.646v4.092h-19.212V126.989L603.367,126.989z M647.692,155.894
  c-2.728,0-5.234-0.646-7.516-1.938c-2.283-1.293-4.093-3.058-5.428-5.299c-1.335-2.24-2.003-4.724-2.003-7.452
  c0-2.728,0.668-5.212,2.003-7.453c1.335-2.24,3.145-4.006,5.428-5.298c2.283-1.292,4.788-1.938,7.516-1.938
  c2.614,0,4.99,0.589,7.129,1.766c2.14,1.177,3.827,2.771,5.062,4.781l-3.446,2.542c-1.005-1.58-2.24-2.793-3.705-3.64
  c-1.464-0.847-3.13-1.271-4.997-1.271c-1.924,0-3.669,0.452-5.234,1.357c-1.565,0.904-2.793,2.161-3.683,3.769
  c-0.891,1.608-1.335,3.403-1.335,5.384c0,1.981,0.445,3.776,1.335,5.385c0.89,1.608,2.118,2.865,3.683,3.769
  c1.565,0.905,3.31,1.357,5.234,1.357c1.866,0,3.532-0.424,4.997-1.271c1.465-0.847,2.7-2.06,3.705-3.64l3.446,2.541
  c-1.206,2.01-2.879,3.604-5.018,4.782S650.334,155.894,647.692,155.894L647.692,155.894z M679.267,131.082h-9.563v-4.093h23.735
  v4.093h-9.606v24.338h-4.567V131.082L679.267,131.082z M716.356,155.894c-2.269,0-4.286-0.474-6.052-1.421
  c-1.766-0.948-3.152-2.326-4.157-4.135c-1.005-1.809-1.508-3.949-1.508-6.418v-16.929h4.566v17.231
  c0,2.412,0.668,4.264,2.003,5.557c1.335,1.292,3.051,1.939,5.148,1.939c2.068,0,3.762-0.647,5.083-1.939
  c1.321-1.292,1.981-3.144,1.981-5.557v-17.231h4.566v16.929c0,2.47-0.503,4.609-1.508,6.418c-1.005,1.81-2.391,3.188-4.157,4.135
  C720.556,155.42,718.567,155.894,716.356,155.894L716.356,155.894z M759.95,155.42l-8.099-10.984h-5.212v10.984h-4.566v-28.431
  h10.382c1.896,0,3.575,0.366,5.04,1.099c1.465,0.733,2.599,1.759,3.403,3.08c0.804,1.321,1.206,2.829,1.206,4.523
  c0,1.867-0.488,3.504-1.465,4.911c-0.976,1.407-2.312,2.441-4.006,3.101l8.529,11.717H759.95L759.95,155.42z M746.639,140.386
  h5.729c1.58,0,2.814-0.431,3.705-1.292c0.89-0.861,1.335-1.981,1.335-3.36c0-1.407-0.445-2.541-1.335-3.403
  c-0.891-0.862-2.125-1.292-3.705-1.292h-5.729V140.386L746.639,140.386z M776.49,126.989h18.695v4.093h-14.129v7.28h10.64v3.963
  h-10.64v9.003h14.646v4.092H776.49V126.989z"
    />
  </g>
</svg>
